PathFileType	4	(X/Y/Z)	OpenSim_Sub10_CSBaseline_Magnet.trc
DataRate	CameraRate	NumFrames	NumMarkers	Units	OrigDataRate	OrigDataStartFrame	OrigNumFrames
100	100	26	8	m	100	4556	9111
Frame#	Time	torso_imu_offset_imu	pelvis_imu_offset_imu	tibia_r_imu_offset_imu	femur_r_imu_offset_imu	tibia_l_imu_offset_imu	femur_l_imu_offset_imu	toes_r_imu_offset_imu	toes_l_imu_offset_imu
				X1	Y1	Z1	X2	Y2	Z2	X3	Y3	Z3	X4	Y4	Z4	X5	Y5	Z5	X6	Y6	Z6	X7	Y7	Z7	X8		Y8	Z8	

4556	45.55000000	-0.95682790	-0.11651598	0.02953223	-0.69424410	0.15093597	-0.63195571	-0.75692511	-0.48979794	-0.15353994	-0.82016794	-0.22042794	0.02864779	-0.32277924	0.71255709	0.32091740	-0.59861802	0.20454568	0.31995729	-0.63555349	-0.25781193	-0.37703435	-0.82350513	-0.18875220	0.06274948
4557	45.56000000	-0.95447267	-0.11889718	0.02684375	-0.69242668	0.14841776	-0.62914665	-0.75435096	-0.49987681	-0.15717816	-0.81346030	-0.22734058	0.03098833	-0.29869476	0.72288487	0.31480675	-0.60887418	0.19921259	0.31965885	-0.64555709	-0.26405430	-0.37449699	-0.81220504	-0.18778540	0.09637709
4558	45.57000000	-0.95442085	-0.12080147	0.02617360	-0.69454236	0.13807324	-0.63397668	-0.74831815	-0.50124557	-0.15372616	-0.80874083	-0.23509149	0.03650500	-0.28106025	0.72999183	0.30808808	-0.61346783	0.18545771	0.30251280	-0.64081443	-0.26337325	-0.37461365	-0.80826767	-0.17962068	0.13735930
4559	45.58000000	-0.95246828	-0.12302435	0.03389458	-0.69399175	0.13897431	-0.63593494	-0.74788374	-0.50396688	-0.17001411	-0.80020426	-0.25529740	0.04335033	-0.26153390	0.74078438	0.30730183	-0.62801506	0.17312429	0.28613670	-0.64088510	-0.26189309	-0.37462207	-0.79584771	-0.17986843	0.17994088
4560	45.59000000	-0.95425507	-0.12523634	0.02525592	-0.68966985	0.13805322	-0.64130137	-0.74164036	-0.50990028	-0.18034265	-0.79991856	-0.26324075	0.04126152	-0.24587594	0.74756484	0.30245780	-0.62972492	0.16617875	0.28419695	-0.63681418	-0.26338156	-0.37493655	-0.78206833	-0.17010118	0.22320354
4561	45.60000000	-0.94964898	-0.12702225	0.03291531	-0.68985479	0.12981888	-0.64683487	-0.74151210	-0.51203201	-0.18601867	-0.79330101	-0.27547120	0.04122659	-0.22346863	0.75531009	0.30478281	-0.63888608	0.15123719	0.27500454	-0.63958111	-0.25968251	-0.37871242	-0.77912333	-0.16018625	0.27006837
4562	45.61000000	-0.94843382	-0.12697113	0.03437902	-0.68926622	0.12802692	-0.64028231	-0.73684570	-0.51619649	-0.18700029	-0.79096450	-0.28186423	0.03229063	-0.20302915	0.75118719	0.31129264	-0.64912264	0.14390837	0.26578086	-0.64080897	-0.26614659	-0.37461544	-0.75645542	-0.15500303	0.30490144
4563	45.62000000	-0.95463524	-0.12973301	0.03451344	-0.68510719	0.12320018	-0.64709474	-0.73521937	-0.51796645	-0.19969413	-0.78438839	-0.29373118	0.03117875	-0.18192917	0.76068256	0.31193016	-0.65521096	0.12178959	0.25298268	-0.63660423	-0.26502717	-0.37860834	-0.74710681	-0.14040145	0.33656632
4564	45.63000000	-0.95415195	-0.13290141	0.03735701	-0.68955154	0.11791203	-0.64463582	-0.73451260	-0.52037101	-0.19408487	-0.78446876	-0.29634430	0.03077179	-0.17043674	0.76410467	0.31021591	-0.66548956	0.10863505	0.24852480	-0.63920894	-0.26199182	-0.37471265	-0.73757960	-0.13817543	0.36723023
4565	45.64000000	-0.95678825	-0.12701552	0.04097937	-0.68923687	0.12166160	-0.65469171	-0.72602201	-0.52718244	-0.18995240	-0.77957958	-0.31088461	0.02462852	-0.15030369	0.76206195	0.31337172	-0.66914105	0.08944533	0.23518113	-0.63844804	-0.26989916	-0.37651397	-0.72458672	-0.12740065	0.38663209
4566	45.65000000	-0.95584343	-0.13121218	0.03888087	-0.68679724	0.11364008	-0.65834529	-0.72375485	-0.53712947	-0.18702440	-0.77492717	-0.31661514	0.02800169	-0.13964814	0.76231765	0.30214366	-0.67541505	0.08105774	0.23445009	-0.63206280	-0.26550160	-0.37255469	-0.71681815	-0.12195004	0.40131663
4567	45.66000000	-0.94970379	-0.12426368	0.04384819	-0.68450451	0.11795582	-0.65826568	-0.71995482	-0.53637483	-0.17397465	-0.76929679	-0.32474285	0.03213339	-0.12648808	0.76775918	0.29906079	-0.67909185	0.06772072	0.23321505	-0.63074481	-0.26746141	-0.37715977	-0.72101844	-0.09709783	0.40001445
4568	45.67000000	-0.95096783	-0.12247693	0.04730916	-0.68275565	0.11352011	-0.65877915	-0.72186836	-0.54002946	-0.15630761	-0.77081796	-0.33179962	0.03360573	-0.12072318	0.78056534	0.27920078	-0.68120007	0.05452042	0.21996296	-0.63266309	-0.26611150	-0.37862846	-0.73073788	-0.08010743	0.39530386
4569	45.68000000	-0.95634053	-0.11855974	0.04482860	-0.68468973	0.11360496	-0.66541315	-0.71945097	-0.55426757	-0.16681984	-0.75884942	-0.35051276	0.04754216	-0.11434260	0.78525063	0.25645149	-0.68987585	0.03913942	0.21638662	-0.62966338	-0.27396382	-0.37887882	-0.74048595	-0.06265205	0.38594277
4570	45.69000000	-0.94824506	-0.12081380	0.04793590	-0.67993015	0.10916337	-0.66254144	-0.72159295	-0.55302094	-0.15465419	-0.75164950	-0.35527918	0.04535288	-0.11584509	0.79618590	0.23378291	-0.69513966	0.02414960	0.21116180	-0.62441012	-0.27133492	-0.38334362	-0.75246388	-0.04983119	0.37403344
4571	45.70000000	-0.95478898	-0.11778920	0.05426058	-0.67807344	0.10496603	-0.66488406	-0.71876533	-0.55153720	-0.15130960	-0.75525240	-0.35819858	0.05449782	-0.12533368	0.79737485	0.21357573	-0.69520675	0.01646782	0.19727475	-0.62793405	-0.27412569	-0.38710563	-0.76596683	-0.03626191	0.35812464
4572	45.71000000	-0.95324814	-0.11001957	0.05817348	-0.68034695	0.10097531	-0.66509535	-0.71031382	-0.55556309	-0.15411600	-0.74665755	-0.36848031	0.05250286	-0.13676953	0.79868925	0.18898645	-0.70158708	0.01110870	0.18731661	-0.62162225	-0.27784110	-0.38666395	-0.77358870	-0.02134858	0.33872736
4573	45.72000000	-0.95917411	-0.11191421	0.06010486	-0.67966690	0.10077459	-0.66966487	-0.70924497	-0.55570926	-0.16271957	-0.74643414	-0.37457606	0.06304522	-0.15056158	0.80646675	0.16946715	-0.70312294	-0.00439171	0.18500741	-0.62407386	-0.27978597	-0.38965637	-0.79214645	-0.01231572	0.30760973
4574	45.73000000	-0.95237160	-0.10320349	0.05983558	-0.67783833	0.09425921	-0.66914393	-0.71322325	-0.55963108	-0.16222543	-0.73738540	-0.38506599	0.07162711	-0.16680971	0.80013280	0.15953536	-0.70747664	-0.01468495	0.17878318	-0.61877735	-0.28143088	-0.39762867	-0.80321358	-0.00194866	0.28720257
4575	45.74000000	-0.95325539	-0.10406332	0.06254095	-0.67957858	0.08802935	-0.67167158	-0.71235322	-0.56016937	-0.17030028	-0.73118098	-0.39291288	0.07189005	-0.18942915	0.80392368	0.15369015	-0.71164759	-0.02371885	0.17838665	-0.61369174	-0.28203909	-0.39708146	-0.81486076	0.00038149	0.25234249
4576	45.75000000	-0.95480630	-0.10601866	0.06922883	-0.67731010	0.08447787	-0.67576011	-0.70595570	-0.56813323	-0.17951790	-0.72699257	-0.39967547	0.07436241	-0.21184483	0.79011338	0.15140466	-0.71518560	-0.03941525	0.16972867	-0.61723763	-0.29040441	-0.39994914	-0.82850747	0.00935536	0.21366593
4577	45.76000000	-0.95087704	-0.10307628	0.07319934	-0.67935047	0.08391421	-0.67335562	-0.70642356	-0.56588092	-0.17025133	-0.72457618	-0.40946882	0.07484434	-0.24115487	0.78370620	0.13896362	-0.71464441	-0.05165119	0.17042370	-0.61067114	-0.29425707	-0.40741576	-0.83732745	0.01159207	0.17079488
4578	45.77000000	-0.95352052	-0.09448591	0.07535411	-0.67450674	0.07567735	-0.67847676	-0.70614211	-0.56819222	-0.17127487	-0.72008732	-0.41119003	0.07706432	-0.26741012	0.77491089	0.14085839	-0.71678782	-0.06092037	0.16793886	-0.61088524	-0.30263164	-0.40496148	-0.84615390	0.01571146	0.12781061
4579	45.78000000	-0.95347758	-0.09098684	0.07625348	-0.67288098	0.07353586	-0.68209383	-0.70420816	-0.56811895	-0.17295149	-0.71388604	-0.41812038	0.07704308	-0.29453512	0.76810008	0.14031876	-0.71836765	-0.07579086	0.16578090	-0.61068394	-0.30799559	-0.41003548	-0.85006246	0.01351258	0.08335844
4580	45.79000000	-0.95570078	-0.09097460	0.07088904	-0.67690189	0.06719872	-0.67752629	-0.70420095	-0.57257436	-0.16772761	-0.71188213	-0.42874724	0.07520197	-0.32820272	0.75422619	0.13364466	-0.71741564	-0.08481025	0.16404023	-0.61305244	-0.30810903	-0.41797487	-0.84951142	0.01109206	0.04496859
4581	45.80000000	-0.95551368	-0.08857919	0.08145402	-0.67411138	0.06546120	-0.68538575	-0.70377353	-0.57457338	-0.16410790	-0.70859655	-0.44089849	0.07343580	-0.36341335	0.73607072	0.14129679	-0.71540493	-0.09964550	0.16385023	-0.61485601	-0.31484871	-0.41949119	-0.84452659	0.00282902	-0.00055956
